<svg width="60" height="61" viewBox="0 0 60 61" fill="none" xmlns="http://www.w3.org/2000/svg">
<g clip-path="url(#clip0_131_785)">
<path d="M3.32082 56.9184C10.4127 64.0052 22.5328 58.9871 22.5328 48.9536C22.5328 45.9673 21.3465 43.1033 19.2348 40.9916C17.1232 38.8799 14.2592 37.6936 11.2728 37.6936C1.23931 37.6936 -3.7838 49.8239 3.31064 56.9184" fill="#00C73D"></path>
<path d="M52.2388 0H5.71268C0.997463 0 -1.36142 5.69999 1.97206 9.03346L50.9665 58.0279C54.3 61.3614 60 59 60 54.2873V7.76878C60.0003 6.7496 59.7998 5.74034 59.4098 4.79871C59.0199 3.85707 58.4482 3.00152 57.7274 2.28097C57.0066 1.56042 56.1508 0.988996 55.2091 0.599358C54.2673 0.20972 53.258 0.00951191 52.2388 0.0101807M36.5282 22.7414C34.2813 22.7414 31.9479 21.3928 31.9173 18.9245H35.0014C35.0243 19.5632 35.7343 20.1968 36.6326 20.1968C37.3654 20.1713 37.9812 19.8405 37.9812 19.2756C37.9812 18.8023 37.6962 18.5428 36.8947 18.329L35.4518 17.9499C32.1438 17.0516 32.1184 15.3747 32.1438 14.3568C32.1667 12.7257 34.1286 11.2142 36.4468 11.2142C38.6454 11.2142 40.961 12.1837 40.9864 14.8785H37.8845C37.8616 14.0515 37.1517 13.909 36.6326 13.909C35.9252 13.909 35.4518 14.2398 35.4747 14.736C35.4977 15.0668 35.7826 15.3976 36.4443 15.563L38.312 16.0592C40.9839 16.7921 41.3147 18.5657 41.3147 19.2756C41.3147 21.6141 38.854 22.7262 36.5384 22.7262M49.2845 22.4895L45.5973 18.1153V22.4895H42.3351V5.44044H45.5973V14.4714L48.2336 11.4636H52.4068L47.8264 16.334L53.3228 22.5048L49.2845 22.4895Z" fill="#00C73D"></path>
</g>
<defs>
<clipPath id="clip0_131_785">
<rect width="60" height="60.2392" fill="white"></rect>
</clipPath>
</defs>
</svg>